<mxfile host="app.diagrams.net" modified="2020-07-29T07:03:20.517Z" agent="5.0 (Macintosh; Intel Mac OS X 10_15_4) AppleWebKit/537.36 (KHTML, like Gecko) Chrome/84.0.4147.89 Safari/537.36" etag="5iAyd25B01MDpwQdMgK7" version="13.5.4" type="github">
  <diagram id="C5RBs43oDa-KdzZeNtuy" name="Page-1">
    <mxGraphModel dx="946" dy="614" grid="1" gridSize="10" guides="1" tooltips="1" connect="1" arrows="1" fold="1" page="1" pageScale="1" pageWidth="827" pageHeight="1169" math="0" shadow="0">
      <root>
        <mxCell id="WIyWlLk6GJQsqaUBKTNV-0" />
        <mxCell id="WIyWlLk6GJQsqaUBKTNV-1" parent="WIyWlLk6GJQsqaUBKTNV-0" />
        <mxCell id="ryUHNlFZHrQU6Tg8C-eP-23" value="" style="edgeStyle=orthogonalEdgeStyle;rounded=0;orthogonalLoop=1;jettySize=auto;html=1;" edge="1" parent="WIyWlLk6GJQsqaUBKTNV-1" source="ryUHNlFZHrQU6Tg8C-eP-7" target="ryUHNlFZHrQU6Tg8C-eP-16">
          <mxGeometry relative="1" as="geometry" />
        </mxCell>
        <mxCell id="ryUHNlFZHrQU6Tg8C-eP-7" value="" style="rounded=1;whiteSpace=wrap;html=1;fontSize=12;glass=0;strokeWidth=1;shadow=0;align=left;fillColor=none;" vertex="1" parent="WIyWlLk6GJQsqaUBKTNV-1">
          <mxGeometry x="125" y="49" width="315" height="80" as="geometry" />
        </mxCell>
        <mxCell id="ryUHNlFZHrQU6Tg8C-eP-8" value="输入信息" style="text;html=1;strokeColor=none;fillColor=none;align=center;verticalAlign=middle;whiteSpace=wrap;rounded=0;" vertex="1" parent="WIyWlLk6GJQsqaUBKTNV-1">
          <mxGeometry x="131" y="52" width="70" height="20" as="geometry" />
        </mxCell>
        <mxCell id="ryUHNlFZHrQU6Tg8C-eP-9" value="栅格数据" style="rounded=1;whiteSpace=wrap;html=1;" vertex="1" parent="WIyWlLk6GJQsqaUBKTNV-1">
          <mxGeometry x="146" y="79" width="60" height="30" as="geometry" />
        </mxCell>
        <mxCell id="ryUHNlFZHrQU6Tg8C-eP-13" value="计算公式" style="rounded=1;whiteSpace=wrap;html=1;" vertex="1" parent="WIyWlLk6GJQsqaUBKTNV-1">
          <mxGeometry x="356" y="80" width="73" height="30" as="geometry" />
        </mxCell>
        <mxCell id="ryUHNlFZHrQU6Tg8C-eP-14" value="栅格数据" style="rounded=1;whiteSpace=wrap;html=1;" vertex="1" parent="WIyWlLk6GJQsqaUBKTNV-1">
          <mxGeometry x="216" y="79" width="60" height="30" as="geometry" />
        </mxCell>
        <mxCell id="ryUHNlFZHrQU6Tg8C-eP-15" value="......" style="rounded=1;whiteSpace=wrap;html=1;" vertex="1" parent="WIyWlLk6GJQsqaUBKTNV-1">
          <mxGeometry x="285" y="80" width="60" height="30" as="geometry" />
        </mxCell>
        <mxCell id="ryUHNlFZHrQU6Tg8C-eP-44" style="edgeStyle=orthogonalEdgeStyle;rounded=0;orthogonalLoop=1;jettySize=auto;html=1;exitX=0.5;exitY=1;exitDx=0;exitDy=0;entryX=0.5;entryY=0;entryDx=0;entryDy=0;" edge="1" parent="WIyWlLk6GJQsqaUBKTNV-1" source="ryUHNlFZHrQU6Tg8C-eP-16" target="ryUHNlFZHrQU6Tg8C-eP-40">
          <mxGeometry relative="1" as="geometry" />
        </mxCell>
        <mxCell id="ryUHNlFZHrQU6Tg8C-eP-16" value="利用堆栈拆解公式" style="rounded=1;whiteSpace=wrap;html=1;fontSize=12;glass=0;strokeWidth=1;shadow=0;" vertex="1" parent="WIyWlLk6GJQsqaUBKTNV-1">
          <mxGeometry x="223" y="170" width="119" height="40" as="geometry" />
        </mxCell>
        <mxCell id="ryUHNlFZHrQU6Tg8C-eP-17" value="加" style="rounded=1;whiteSpace=wrap;html=1;fontSize=12;glass=0;strokeWidth=1;shadow=0;" vertex="1" parent="WIyWlLk6GJQsqaUBKTNV-1">
          <mxGeometry x="118.5" y="264" width="68" height="40" as="geometry" />
        </mxCell>
        <mxCell id="ryUHNlFZHrQU6Tg8C-eP-18" value="减" style="rounded=1;whiteSpace=wrap;html=1;fontSize=12;glass=0;strokeWidth=1;shadow=0;" vertex="1" parent="WIyWlLk6GJQsqaUBKTNV-1">
          <mxGeometry x="204.5" y="264" width="68" height="40" as="geometry" />
        </mxCell>
        <mxCell id="ryUHNlFZHrQU6Tg8C-eP-19" value="乘" style="rounded=1;whiteSpace=wrap;html=1;fontSize=12;glass=0;strokeWidth=1;shadow=0;" vertex="1" parent="WIyWlLk6GJQsqaUBKTNV-1">
          <mxGeometry x="292.5" y="264" width="68" height="40" as="geometry" />
        </mxCell>
        <mxCell id="ryUHNlFZHrQU6Tg8C-eP-20" value="除" style="rounded=1;whiteSpace=wrap;html=1;fontSize=12;glass=0;strokeWidth=1;shadow=0;" vertex="1" parent="WIyWlLk6GJQsqaUBKTNV-1">
          <mxGeometry x="372.5" y="264" width="68" height="40" as="geometry" />
        </mxCell>
        <mxCell id="ryUHNlFZHrQU6Tg8C-eP-46" style="edgeStyle=orthogonalEdgeStyle;rounded=0;orthogonalLoop=1;jettySize=auto;html=1;exitX=0.5;exitY=1;exitDx=0;exitDy=0;" edge="1" parent="WIyWlLk6GJQsqaUBKTNV-1" source="ryUHNlFZHrQU6Tg8C-eP-21" target="ryUHNlFZHrQU6Tg8C-eP-42">
          <mxGeometry relative="1" as="geometry" />
        </mxCell>
        <mxCell id="ryUHNlFZHrQU6Tg8C-eP-21" value="按照计算顺序&lt;br&gt;分步计算" style="rounded=1;whiteSpace=wrap;html=1;fontSize=12;glass=0;strokeWidth=1;shadow=0;" vertex="1" parent="WIyWlLk6GJQsqaUBKTNV-1">
          <mxGeometry x="230.75" y="350" width="103.5" height="40" as="geometry" />
        </mxCell>
        <mxCell id="ryUHNlFZHrQU6Tg8C-eP-45" style="edgeStyle=orthogonalEdgeStyle;rounded=0;orthogonalLoop=1;jettySize=auto;html=1;exitX=0.5;exitY=1;exitDx=0;exitDy=0;entryX=0.5;entryY=0;entryDx=0;entryDy=0;" edge="1" parent="WIyWlLk6GJQsqaUBKTNV-1" source="ryUHNlFZHrQU6Tg8C-eP-40" target="ryUHNlFZHrQU6Tg8C-eP-21">
          <mxGeometry relative="1" as="geometry" />
        </mxCell>
        <mxCell id="ryUHNlFZHrQU6Tg8C-eP-40" value="" style="rounded=0;whiteSpace=wrap;html=1;fillColor=none;" vertex="1" parent="WIyWlLk6GJQsqaUBKTNV-1">
          <mxGeometry x="110" y="240" width="350" height="74" as="geometry" />
        </mxCell>
        <mxCell id="ryUHNlFZHrQU6Tg8C-eP-41" value="geotools栅格计算" style="text;html=1;strokeColor=none;fillColor=none;align=center;verticalAlign=middle;whiteSpace=wrap;rounded=0;" vertex="1" parent="WIyWlLk6GJQsqaUBKTNV-1">
          <mxGeometry x="110" y="240" width="110" height="20" as="geometry" />
        </mxCell>
        <mxCell id="ryUHNlFZHrQU6Tg8C-eP-42" value="输出结果" style="rounded=1;whiteSpace=wrap;html=1;fontSize=12;glass=0;strokeWidth=1;shadow=0;" vertex="1" parent="WIyWlLk6GJQsqaUBKTNV-1">
          <mxGeometry x="230.75" y="440" width="103.5" height="40" as="geometry" />
        </mxCell>
      </root>
    </mxGraphModel>
  </diagram>
</mxfile>
